<svg id="Layer_1" data-name="Layer 1" xmlns="http://www.w3.org/2000/svg" viewBox="0 0 32 32"><defs><style>.cls-1{fill:#f05565;}.cls-2{fill:#efebde;}.cls-3{fill:#d5d0bb;}.cls-4{fill:#36495e;}.cls-5{fill:#7f6e5d;}</style></defs><title>ludica</title><g id="Grupo_290" data-name="Grupo 290"><g id="Grupo_289" data-name="Grupo 289"><path id="Caminho_78" data-name="Caminho 78" class="cls-1" d="M26.48,2.11V4.23H22.62V2.11H9.38V4.23H5.52V2.11H1.1V7.93H30.9V2.11Z"/><path id="Caminho_79" data-name="Caminho 79" class="cls-2" d="M5.52,7.93H1.1V32H30.9V7.93Z"/><path id="Caminho_80" data-name="Caminho 80" class="cls-3" d="M21.61,13H5.33V28.3H26.67V13ZM16.56,14h3.93v3.7H16.56Zm3.93,8.46H16.56v-3.7h3.93Zm-9-3.7h3.93v3.7H11.51Zm0-4.76h3.93v3.7H11.51ZM6.45,14h3.93v3.7H6.46Zm0,4.76h3.93v3.7H6.46Zm3.93,8.45H6.46v-3.7h3.93Zm5.06,0H11.51v-3.7h3.93Zm5,0H16.56v-3.7h3.93Zm5.06,0H21.61v-3.7h3.94Zm0-4.75H21.61v-3.7h3.94Zm-3.94-4.76V14h3.94v3.7Z"/><rect id="Retângulo_156" data-name="Retângulo 156" class="cls-4" x="5.33" width="3.7" height="4.23"/><rect id="Retângulo_157" data-name="Retângulo 157" class="cls-4" x="22.97" width="3.7" height="4.23"/><rect id="Retângulo_158" data-name="Retângulo 158" class="cls-5" x="11.65" y="18.31" width="3.7" height="3.7"/></g></g></svg>