<svg id="Layer_1" data-name="Layer 1" xmlns="http://www.w3.org/2000/svg" viewBox="0 0 32 32"><defs><style>.cls-1{fill:#3abca7;}.cls-2{fill:#fff;}</style></defs><title>ludica</title><g id="Grupo_297" data-name="Grupo 297"><path id="Caminho_84" data-name="Caminho 84" class="cls-1" d="M26.85,32H5.15A5.15,5.15,0,0,1,0,26.85V5.15A5.15,5.15,0,0,1,5.15,0h21.7A5.15,5.15,0,0,1,32,5.15v21.7A5.15,5.15,0,0,1,26.85,32Z"/><path id="Caminho_85" data-name="Caminho 85" class="cls-2" d="M27.2,8.59H16.4a.6.6,0,0,1,0-1.2H27.2a.6.6,0,0,1,.58.62A.59.59,0,0,1,27.2,8.59Z"/><path id="Caminho_86" data-name="Caminho 86" class="cls-2" d="M27.2,17.21H16.4a.6.6,0,0,1,0-1.19H27.2a.6.6,0,1,1,0,1.19Z"/><path id="Caminho_87" data-name="Caminho 87" class="cls-2" d="M27.2,25.84H16.4a.6.6,0,0,1,0-1.2H27.2a.6.6,0,1,1,0,1.2Z"/><path id="Caminho_88" data-name="Caminho 88" class="cls-2" d="M7.24,10.2a.6.6,0,0,1-.36-.12L4.14,8A.6.6,0,0,1,4,7.18a.6.6,0,0,1,.84-.12L7.15,8.78,10.9,4.41a.61.61,0,0,1,.85-.07.6.6,0,0,1,.06.85h0L7.7,10A.61.61,0,0,1,7.24,10.2Z"/><path id="Caminho_89" data-name="Caminho 89" class="cls-2" d="M7.24,19a.6.6,0,0,1-.36-.12L4.14,16.82A.6.6,0,0,1,4,16a.6.6,0,0,1,.84-.12l2.29,1.72,3.75-4.37a.6.6,0,1,1,.91.78h0L7.7,18.79A.61.61,0,0,1,7.24,19Z"/><path id="Caminho_90" data-name="Caminho 90" class="cls-2" d="M7.24,28.4a.61.61,0,0,1-.36-.13L4.14,26.22A.61.61,0,0,1,4,25.38a.59.59,0,0,1,.83-.14l0,0L7.15,27l3.75-4.37a.61.61,0,0,1,.85-.07.6.6,0,0,1,.06.85L7.7,28.19A.61.61,0,0,1,7.24,28.4Z"/></g></svg>