<svg id="Layer_1" data-name="Layer 1" xmlns="http://www.w3.org/2000/svg" viewBox="0 0 32 32"><defs><style>.cls-1{fill:#ecf0f1;}.cls-2{fill:#556080;}.cls-3{fill:#f29c21;}.cls-4{fill:#fff;}</style></defs><title>ludica</title><g id="Grupo_301" data-name="Grupo 301"><path id="Caminho_91" data-name="Caminho 91" class="cls-1" d="M10.1,23.08,5.81,25.42a3.75,3.75,0,0,0-.69.49A14.36,14.36,0,0,0,23.57,26a3.82,3.82,0,0,0-.75-.51l-4.59-2.29a1.75,1.75,0,0,1-1-1.57V19.78a5.79,5.79,0,0,0,.43-.55,10.91,10.91,0,0,0,1.43-2.88,1.45,1.45,0,0,0,1-1.37V13.05A1.39,1.39,0,0,0,19.66,12V9.21s.57-4.33-5.29-4.33S9.09,9.21,9.09,9.21V12a1.39,1.39,0,0,0-.48,1.06V15a1.45,1.45,0,0,0,.66,1.21A9.52,9.52,0,0,0,11,19.78v1.76A1.76,1.76,0,0,1,10.1,23.08Z"/><g id="Grupo_300" data-name="Grupo 300"><path id="Caminho_92" data-name="Caminho 92" class="cls-2" d="M14.62.54A14.37,14.37,0,0,0,5.12,25.9a4.24,4.24,0,0,1,.69-.48l4.29-2.34A1.76,1.76,0,0,0,11,21.54V19.78a9.45,9.45,0,0,1-1.74-3.59A1.48,1.48,0,0,1,8.6,15V13.05A1.48,1.48,0,0,1,9.08,12V9.21s-.57-4.33,5.29-4.33,5.29,4.33,5.29,4.33V12a1.44,1.44,0,0,1,.48,1.06V15a1.44,1.44,0,0,1-1,1.37,10.62,10.62,0,0,1-1.43,2.88c-.13.19-.28.38-.43.56v1.8a1.74,1.74,0,0,0,1,1.56l4.6,2.3a3.82,3.82,0,0,1,.75.51,14.38,14.38,0,0,0-9-25.42Z"/></g></g><g id="Grupo_302" data-name="Grupo 302"><circle id="Elipse_14" data-name="Elipse 14" class="cls-3" cx="25.49" cy="24.95" r="6.51"/><path id="Caminho_93" data-name="Caminho 93" class="cls-4" d="M28.75,25.49H22.24a.54.54,0,1,1,0-1.08h6.51a.54.54,0,0,1,0,1.08Z"/></g></svg>