<svg id="Layer_1" data-name="Layer 1" xmlns="http://www.w3.org/2000/svg" viewBox="0 0 32 32"><defs><style>.cls-1{fill:#8697cb;}.cls-2{fill:#fff;}</style></defs><title>ludica</title><g id="Grupo_365" data-name="Grupo 365"><g id="Grupo_313" data-name="Grupo 313"><path id="Caminho_110" data-name="Caminho 110" class="cls-1" d="M32,9.26A9.15,9.15,0,0,0,22.86.12H9.14A9.15,9.15,0,0,0,0,9.26v8a9.15,9.15,0,0,0,8.57,9.11V24.12a.57.57,0,0,1,.55-.59.58.58,0,0,1,.6.55v7.8l.77-.77A16,16,0,0,1,21.84,26.4h1A9.15,9.15,0,0,0,32,17.26Z"/></g><g id="Grupo_314" data-name="Grupo 314"><circle id="Elipse_20" data-name="Elipse 20" class="cls-2" cx="21.89" cy="12.34" r="1.52"/><circle id="Elipse_21" data-name="Elipse 21" class="cls-2" cx="16" cy="12.34" r="1.52"/><circle id="Elipse_22" data-name="Elipse 22" class="cls-2" cx="10.11" cy="12.34" r="1.52"/></g></g></svg>