<svg id="Layer_1" data-name="Layer 1" xmlns="http://www.w3.org/2000/svg" viewBox="0 0 32 32"><defs><style>.cls-1{fill:#404537;}.cls-2{fill:#404656;}.cls-3{fill:#efebde;}.cls-4{fill:#8697cb;}.cls-5{fill:#d5d0bb;}.cls-6{fill:#76c9b0;}.cls-7{fill:#fff;}</style></defs><title>ludica</title><g id="Grupo_309" data-name="Grupo 309"><path id="Caminho_98" data-name="Caminho 98" class="cls-1" d="M18.47,1.07H16.29V2.7H11.41V1.07H1.09V31.46H26.62V1.07Z"/><rect id="Retângulo_161" data-name="Retângulo 161" class="cls-2" x="11.43" width="4.84" height="2.69"/><path id="Caminho_99" data-name="Caminho 99" class="cls-3" d="M20.11,2.69V4.32H7.59V2.69H2.7V29.85H25V2.69Z"/><path id="Caminho_100" data-name="Caminho 100" class="cls-4" d="M16.27,1.07V2.69H11.43V1.07H7.67V4.3H20V1.07Z"/><path id="Caminho_101" data-name="Caminho 101" class="cls-5" d="M13,8.67H6A.54.54,0,1,1,6,7.6h7a.54.54,0,0,1,0,1.07Z"/><path id="Caminho_102" data-name="Caminho 102" class="cls-5" d="M13,25.49H6a.54.54,0,1,1,0-1.07h7a.54.54,0,0,1,0,1.07Z"/><path id="Caminho_103" data-name="Caminho 103" class="cls-5" d="M21.77,11.93H5.93a.54.54,0,0,1,0-1.08H21.77a.54.54,0,0,1,0,1.08Z"/><path id="Caminho_104" data-name="Caminho 104" class="cls-5" d="M21.77,18.44H5.93a.54.54,0,0,1-.54-.54.54.54,0,0,1,.54-.54H21.77a.54.54,0,0,1,0,1.08Z"/><path id="Caminho_105" data-name="Caminho 105" class="cls-5" d="M21.77,22.24H5.93a.54.54,0,0,1-.54-.54.54.54,0,0,1,.54-.54H21.77a.54.54,0,0,1,0,1.08Z"/><path id="Caminho_106" data-name="Caminho 106" class="cls-5" d="M13.52,15.18H6a.54.54,0,1,1,0-1.07h7.53a.54.54,0,0,1,0,1.07Z"/><path id="Caminho_107" data-name="Caminho 107" class="cls-5" d="M21.72,15.18H18a.54.54,0,1,1,0-1.07h3.76a.54.54,0,1,1,0,1.07Z"/><path id="Caminho_108" data-name="Caminho 108" class="cls-5" d="M15.75,15.18a.51.51,0,0,1-.53-.53.48.48,0,0,1,.15-.38.54.54,0,0,1,.76,0,.53.53,0,0,1,.16.38.55.55,0,0,1-.16.38A.54.54,0,0,1,15.75,15.18Z"/></g><g id="Grupo_310" data-name="Grupo 310"><circle id="Elipse_18" data-name="Elipse 18" class="cls-6" cx="25" cy="26.09" r="5.91"/><path id="Caminho_109" data-name="Caminho 109" class="cls-7" d="M28.23,25.55H25.54V22.86a.54.54,0,0,0-1.07,0h0v3.23a.53.53,0,0,0,.53.53h3.23a.54.54,0,1,0,0-1.07Z"/></g></svg>